<mxfile host="app.diagrams.net" modified="2023-07-06T05:06:12.188Z" agent="Mozilla/5.0 (Windows NT 10.0; Win64; x64) AppleWebKit/537.36 (KHTML, like Gecko) Chrome/114.0.0.0 Safari/537.36" etag="hA7PCQNOG-bYpwqSKF9Y" version="21.6.1" type="device">
  <diagram name="Page-1" id="mUcaiPwHZJQSgUp1pJME">
    <mxGraphModel dx="1332" dy="486" grid="1" gridSize="10" guides="1" tooltips="1" connect="1" arrows="1" fold="1" page="1" pageScale="1" pageWidth="850" pageHeight="1100" math="0" shadow="0">
      <root>
        <mxCell id="0" />
        <mxCell id="1" parent="0" />
        <mxCell id="T9rhkgU1tBuj_ebtaRvX-3" value="" style="edgeStyle=orthogonalEdgeStyle;rounded=0;orthogonalLoop=1;jettySize=auto;html=1;" edge="1" parent="1" source="T9rhkgU1tBuj_ebtaRvX-1" target="T9rhkgU1tBuj_ebtaRvX-2">
          <mxGeometry relative="1" as="geometry" />
        </mxCell>
        <mxCell id="T9rhkgU1tBuj_ebtaRvX-1" value="&lt;b&gt;Analisa Kebutuhan&lt;/b&gt;" style="rounded=1;whiteSpace=wrap;html=1;" vertex="1" parent="1">
          <mxGeometry x="150" y="50" width="120" height="60" as="geometry" />
        </mxCell>
        <mxCell id="T9rhkgU1tBuj_ebtaRvX-5" value="" style="edgeStyle=orthogonalEdgeStyle;rounded=0;orthogonalLoop=1;jettySize=auto;html=1;" edge="1" parent="1" source="T9rhkgU1tBuj_ebtaRvX-2" target="T9rhkgU1tBuj_ebtaRvX-4">
          <mxGeometry relative="1" as="geometry" />
        </mxCell>
        <mxCell id="T9rhkgU1tBuj_ebtaRvX-2" value="&lt;b&gt;Design Sistem&lt;/b&gt;" style="rounded=1;whiteSpace=wrap;html=1;" vertex="1" parent="1">
          <mxGeometry x="275" y="130" width="120" height="60" as="geometry" />
        </mxCell>
        <mxCell id="T9rhkgU1tBuj_ebtaRvX-7" value="" style="edgeStyle=orthogonalEdgeStyle;rounded=0;orthogonalLoop=1;jettySize=auto;html=1;" edge="1" parent="1" source="T9rhkgU1tBuj_ebtaRvX-4" target="T9rhkgU1tBuj_ebtaRvX-6">
          <mxGeometry relative="1" as="geometry" />
        </mxCell>
        <mxCell id="T9rhkgU1tBuj_ebtaRvX-4" value="&lt;b&gt;Implementasi&lt;/b&gt;" style="rounded=1;whiteSpace=wrap;html=1;" vertex="1" parent="1">
          <mxGeometry x="410" y="210" width="120" height="60" as="geometry" />
        </mxCell>
        <mxCell id="T9rhkgU1tBuj_ebtaRvX-9" value="" style="edgeStyle=orthogonalEdgeStyle;rounded=0;orthogonalLoop=1;jettySize=auto;html=1;" edge="1" parent="1" source="T9rhkgU1tBuj_ebtaRvX-6" target="T9rhkgU1tBuj_ebtaRvX-8">
          <mxGeometry relative="1" as="geometry" />
        </mxCell>
        <mxCell id="T9rhkgU1tBuj_ebtaRvX-6" value="&lt;b&gt;Integrasi dan Pengujian&lt;/b&gt;" style="rounded=1;whiteSpace=wrap;html=1;" vertex="1" parent="1">
          <mxGeometry x="543" y="280" width="120" height="60" as="geometry" />
        </mxCell>
        <mxCell id="T9rhkgU1tBuj_ebtaRvX-8" value="&lt;b&gt;Integrasi dan Pengujian&lt;/b&gt;" style="rounded=1;whiteSpace=wrap;html=1;" vertex="1" parent="1">
          <mxGeometry x="680" y="360" width="120" height="60" as="geometry" />
        </mxCell>
      </root>
    </mxGraphModel>
  </diagram>
</mxfile>
